<svg fill="none" height="51" viewBox="0 0 51 51" width="51" xmlns="http://www.w3.org/2000/svg"><path d="m40.5284 14.8238v-1.2071l-.8535.8536-29.85481 29.8548c-.86856.8685-2.27678.8685-3.14534 0-.86856-.8686-.86856-2.2768 0-3.1454l29.85475-29.8547.8536-.8536h-1.2071-17.9403c-1.2283 0-2.2241-.99576-2.2241-2.22408 0-1.22833.9958-2.22409 2.2241-2.22409h24.5168c1.2283 0 2.2241.99576 2.2241 2.22409v24.51678c0 1.2283-.9958 2.2241-2.2241 2.2241s-2.2241-.9958-2.2241-2.2241zm-22.2927.2797h7.9645l-22.80085 22.8008c-2.677512 2.6776-2.677511 7.0187 0 9.6962 2.67752 2.6775 7.01865 2.6775 9.69615 0l22.8008-22.8008v7.9644c0 3.7866 3.0696 6.8562 6.8562 6.8562s6.8562-3.0696 6.8562-6.8562v-24.51678c0-3.78658-3.0696-6.85621-6.8562-6.8562l-24.5168-.00001c-3.7865 0-6.8562 3.06963-6.8562 6.8562 0 3.78659 3.0697 6.85619 6.8562 6.85619z" fill="#fff" stroke="#fff"/><g clip-rule="evenodd" fill="#000" fill-rule="evenodd"><path d="m18.2355 5.52327h24.5168c1.5045 0 2.7241 1.21961 2.7241 2.72408v24.51675c0 1.5045-1.2196 2.7241-2.7241 2.7241-1.5044 0-2.7241-1.2196-2.7241-2.7241v-17.9402l-29.8547 29.8548c-1.06387 1.0638-2.78867 1.0638-3.85249 0s-1.06382-2.7886 0-3.8525l29.85479-29.8548h-17.9403c-1.5044 0-2.724-1.21957-2.724-2.72405 0-1.50447 1.2196-2.72408 2.724-2.72408z"/><path d="m18.2356 3.59827h24.5167c2.5677 0 4.6491 2.08146 4.6491 4.64909v24.51674c0 2.5677-2.0814 4.6491-4.6491 4.6491-2.5676 0-4.6491-2.0814-4.6491-4.6491v-13.2929l-26.5686 26.5687c-1.81555 1.8155-4.75919 1.8155-6.57477 0-1.81558-1.8156-1.81558-4.7593 0-6.5748l26.56857-26.5687h-13.2929c-2.5676 0-4.649-2.0814-4.649-4.64904 0-2.56763 2.0814-4.64909 4.6491-4.64909zm-.0001 7.37313c-1.5044 0-2.724-1.21957-2.724-2.72405 0-1.50447 1.2196-2.72408 2.724-2.72408h24.5168c1.5045 0 2.7241 1.21961 2.7241 2.72408v24.51675c0 1.5045-1.2196 2.7241-2.7241 2.7241-1.5044 0-2.7241-1.2196-2.7241-2.7241v-17.9402l-29.8547 29.8548c-1.06387 1.0638-2.78867 1.0638-3.85249 0s-1.06382-2.7886 0-3.8525l29.85479-29.8548z"/></g></svg>