<svg xmlns="http://www.w3.org/2000/svg" xmlns:xlink="http://www.w3.org/1999/xlink" width="120" zoomAndPan="magnify" viewBox="0 0 90 89.999999" height="120" preserveAspectRatio="xMidYMid meet" version="1.0"><defs><clipPath id="f2df16fe7b"><path d="M 0 1.472656 L 88 1.472656 L 88 88.472656 L 0 88.472656 Z M 0 1.472656 " clip-rule="nonzero"/></clipPath><clipPath id="19bdd878eb"><path d="M 13.5 30.816406 L 49.5 30.816406 L 49.5 33.066406 L 13.5 33.066406 Z M 13.5 30.816406 " clip-rule="nonzero"/></clipPath><clipPath id="39642802c4"><path d="M 30.425781 14 L 32.675781 14 L 32.675781 49.992188 L 30.425781 49.992188 Z M 30.425781 14 " clip-rule="nonzero"/></clipPath></defs><g clip-path="url(#f2df16fe7b)"><path fill="#000000" d="M 83.878906 65.46875 L 68.957031 50.554688 C 67.3125 48.910156 64.648438 48.910156 63 50.554688 L 59.421875 54.136719 L 55.34375 50.058594 C 64.3125 38.179688 63.417969 21.175781 52.597656 10.359375 C 46.863281 4.628906 39.238281 1.472656 31.132812 1.472656 C 23.023438 1.472656 15.398438 4.628906 9.667969 10.359375 C 3.933594 16.089844 0.773438 23.710938 0.773438 31.8125 C 0.773438 39.917969 3.933594 47.535156 9.667969 53.265625 C 15.585938 59.179688 23.359375 62.136719 31.132812 62.136719 C 37.574219 62.136719 44 60.074219 49.386719 56.011719 L 53.464844 60.089844 L 49.886719 63.667969 C 48.238281 65.308594 48.238281 67.976562 49.886719 69.621094 L 64.804688 84.53125 C 67.433594 87.160156 70.886719 88.472656 74.339844 88.472656 C 77.796875 88.472656 81.25 87.160156 83.878906 84.53125 C 89.136719 79.277344 89.136719 70.722656 83.878906 65.46875 Z M 15.625 47.3125 C 11.480469 43.171875 9.199219 37.667969 9.199219 31.8125 C 9.199219 25.957031 11.480469 20.453125 15.625 16.3125 C 19.765625 12.171875 25.273438 9.894531 31.132812 9.894531 C 36.988281 9.894531 42.496094 12.171875 46.640625 16.3125 C 55.191406 24.859375 55.191406 38.765625 46.640625 47.3125 C 38.089844 55.859375 24.175781 55.859375 15.625 47.3125 Z M 77.921875 78.578125 C 75.945312 80.550781 72.734375 80.546875 70.761719 78.578125 L 58.820312 66.644531 L 65.980469 59.488281 L 77.921875 71.421875 C 79.894531 73.394531 79.894531 76.605469 77.921875 78.578125 Z M 77.921875 78.578125 " fill-opacity="1" fill-rule="nonzero"/></g><g clip-path="url(#19bdd878eb)"><path fill="#000000" d="M 47.988281 30.816406 L 15.011719 30.816406 C 14.359375 30.816406 13.832031 31.320312 13.832031 31.941406 C 13.832031 32.5625 14.359375 33.066406 15.011719 33.066406 L 47.988281 33.066406 C 48.640625 33.066406 49.164062 32.5625 49.164062 31.941406 C 49.164062 31.320312 48.640625 30.816406 47.988281 30.816406 Z M 47.988281 30.816406 " fill-opacity="1" fill-rule="nonzero"/></g><g clip-path="url(#39642802c4)"><path fill="#000000" d="M 32.675781 48.480469 L 32.675781 15.503906 C 32.675781 14.855469 32.175781 14.328125 31.550781 14.328125 C 30.929688 14.328125 30.425781 14.855469 30.425781 15.503906 L 30.425781 48.480469 C 30.425781 49.132812 30.929688 49.660156 31.550781 49.660156 C 32.175781 49.660156 32.675781 49.132812 32.675781 48.480469 Z M 32.675781 48.480469 " fill-opacity="1" fill-rule="nonzero"/></g></svg>